<?xml version="1.0" standalone="no"?>
<!DOCTYPE svg PUBLIC "-//W3C//DTD SVG 20010904//EN"
 "http://www.w3.org/TR/2001/REC-SVG-20010904/DTD/svg10.dtd">
<svg version="1.0" xmlns="http://www.w3.org/2000/svg"
 width="1280.000000pt" height="1280.000000pt" viewBox="0 0 1280.000000 1280.000000"
 preserveAspectRatio="xMidYMid meet">
<g transform="translate(0.000000,1280.000000) scale(0.100000,-0.100000)"
fill="#000000" stroke="none">
<path d="M677 11303 c-4 -3 -7 -59 -7 -123 l0 -117 31 -7 c17 -3 52 -6 78 -6
25 0 87 -9 136 -19 331 -68 534 -260 622 -588 l27 -98 7 -825 c7 -851 7 -864
54 -1145 210 -1264 1027 -2155 2370 -2588 508 -164 985 -241 1665 -270 l55 -2
-3 -1635 c-2 -1122 -6 -1657 -13 -1705 -58 -369 -346 -627 -803 -720 -141 -29
-399 -47 -527 -38 l-90 6 3 -109 3 -109 30 0 c17 0 503 6 1080 14 997 13 1546
11 2905 -11 l155 -3 3 109 3 109 -90 -6 c-49 -4 -160 -2 -248 3 -390 25 -673
130 -862 321 -113 114 -195 277 -219 434 -8 48 -12 593 -14 1705 l-3 1635 55
2 c226 10 466 27 608 44 1217 144 2205 620 2785 1344 397 495 625 1097 687
1810 5 68 10 428 10 825 0 569 3 724 15 803 58 384 283 621 657 692 44 8 99
15 123 15 23 0 57 3 74 6 l32 7 -3 121 -3 121 -175 -1 c-596 -3 -1150 -217
-1522 -587 -212 -210 -366 -467 -469 -777 -90 -274 -125 -496 -139 -880 -12
-334 -28 -488 -76 -750 -90 -489 -254 -916 -485 -1265 -369 -555 -899 -879
-1589 -971 -131 -17 -539 -26 -573 -11 -18 7 -19 72 -14 1980 3 1412 8 1995
16 2052 19 135 49 235 101 340 151 305 436 467 888 505 117 10 272 6 437 -13
19 -2 20 5 23 116 l3 117 -2121 0 -2121 0 3 -117 c3 -111 4 -118 23 -116 193
19 316 23 436 14 579 -47 903 -314 985 -813 15 -94 17 -282 21 -2077 3 -1407
2 -1976 -6 -1984 -30 -30 -461 -15 -691 24 -971 164 -1625 838 -1908 1964 -79
314 -117 602 -132 1006 -10 281 -25 419 -66 613 -136 645 -499 1133 -1036
1394 -260 126 -543 203 -848 231 -128 12 -343 15 -353 4z"/>
</g>
</svg>
